# xmcd CD database file
#
# Track frame offsets:
#	150
#	17461
#	34942
#	53229
#	62998
#	73397
#	91944
#	105843
#	122174
#	133744
#	148040
#	163960
#	176841
#	193609
#	212963
#	227557
#	248560
#	265099
#	281190
#	298801
#	314351
#
# Disc length: 4420 seconds
#
# Revision: 0
# Processed by: cddbd v1.5.1PL0 Copyright (c) Steve Scherf et al.
# Submitted via: CDex 1.51
#
DISCID=48114215
DTITLE=diverse - Line-Fire-Edition (6)
DYEAR=2004
DGENRE=LineDance
TTITLE0=01_Whisful Thinking [ Lovin All Night ] Rodney Crowell
TTITLE1=02_S.X.E [ Just A Little ] Liberty X
TTITLE2=03_Wave On Wave [ Wave On Wave ]
TTITLE3=04_Badda Boom Badda-Bang [ Freddie Said ]
TTITLE4=05 - Miss Honky Tonk [If You Honky Tonk]
TTITLE5=06_ Monterey Mama [ Who's Cheatin' Who ]
TTITLE6=07 - Side By Side [ We Work It Out ]
TTITLE7=08_ Better Off [ I'm From The Country ]
TTITLE8=09 - Goin' Once, Goin' Twice [ Sold ]
TTITLE9=10 - Rocka Hula [ Rock A Hula Baby ]
TTITLE10=11 - Trick Me [ Trick Me ]
TTITLE11=12 - Come Dance With Me [ Come Dance With Me ]
TTITLE12=13 - Get Down, Get Funky [ Slam Dung Da Funk ]
TTITLE13=14 - Get Down, Get Funky [ Yeah ]
TTITLE14=15_ Doctor, Doctor [ Bad Case Of Loving You ]
TTITLE15=16 - Urban Grace [ But For the Grace ]
TTITLE16=17_ Anywhere [ I Can't Take You Anywhere ]
TTITLE17=18 - Faded [ Faded ]
TTITLE18=19 - You Look Good In My Shirt [ You Look Good In My Shirt ]
TTITLE19=20 - Buy Me A Drink [ Do You Still Wanna Buy My That Drink ]
TTITLE20=21 - Something To Talk [ Something To Talk About ]
EXTD=YEAR: 2004
EXTT0=
EXTT1=
EXTT2=
EXTT3=
EXTT4=
EXTT5=
EXTT6=
EXTT7=
EXTT8=
EXTT9=
EXTT10=
EXTT11=
EXTT12=
EXTT13=
EXTT14=
EXTT15=
EXTT16=
EXTT17=
EXTT18=
EXTT19=
EXTT20=
PLAYORDER=
